<svg width="159" height="28" viewBox="0 0 159 28" fill="none" xmlns="http://www.w3.org/2000/svg">
<path fill-rule="evenodd" clip-rule="evenodd" d="M26.3876 2.77126C27.639 3.15116 28.475 3.64407 29.345 4.51521C31.741 6.91429 31.8074 10.88 29.4924 13.3129C29.1392 13.684 28.8612 13.9946 28.8745 14.0031C31.1662 15.4628 32.1773 17.3983 32.0485 20.0794C31.9035 23.0998 30.0968 25.3901 27.1282 26.3171L26.221 26.6003L19.6105 26.6368L13 26.6734V14.5565V2.43945L19.2758 2.4785C25.4279 2.51677 25.5681 2.52257 26.3876 2.77126ZM58.7086 6.41212L58.7292 8.53195L60.8563 8.56229L62.9833 8.59253V10.8774V13.1621H60.8621H58.741L58.7702 17.5303L58.7994 21.8986L60.9192 21.9094L63.0391 21.9203L63.0692 24.2912L63.0993 26.662H58.4111H53.723V19.9121V13.1621H52.2726H50.8222V10.8781V8.5942L52.3005 8.56307L53.7788 8.53195L53.8075 6.52369C53.8233 5.41915 53.8598 4.45173 53.8885 4.37374C53.929 4.26395 54.4754 4.23885 56.3143 4.26217L58.6878 4.29229L58.7086 6.41212ZM18.158 9.43187L18.188 11.9496L21.0729 11.9387C24.2043 11.9269 24.457 11.886 25.0877 11.2874C25.5996 10.8015 25.8305 10.24 25.8305 9.48118C25.8305 8.32487 25.4168 7.64195 24.4359 7.17938C23.8951 6.92445 23.7902 6.9163 21.003 6.9153L18.128 6.91418L18.158 9.43187ZM43.9229 8.41022C45.7925 8.76925 47.4101 9.6414 48.6738 10.9716C50.4314 12.822 51.2672 15.1362 51.2681 18.1548L51.2684 19.41H44.3511C39.5409 19.41 37.4338 19.4461 37.4338 19.5286C37.4338 19.8048 38.0534 20.8797 38.4515 21.2941C39.3272 22.2054 40.4969 22.6455 42.0434 22.6455C43.7484 22.6455 45.1843 22.0561 46.1919 20.9427C46.7452 20.3313 46.8056 20.2946 47.0475 20.4227C47.3262 20.5703 50.4067 22.4235 50.4689 22.4811C50.5777 22.5816 49.6405 23.8006 48.9699 24.4306C47.0427 26.2413 44.533 27.092 41.5061 26.9605C38.707 26.8389 36.7242 26.0669 35.0529 24.4482C33.2501 22.702 32.383 20.5027 32.3847 17.6807C32.3857 16.0578 32.5471 15.1905 33.092 13.8818C34.1488 11.3432 36.185 9.51153 38.8502 8.70198C39.2873 8.56921 39.8881 8.41971 40.1851 8.36995C41.073 8.22089 43.0478 8.2422 43.9229 8.41022ZM40.7007 12.6009C40.038 12.7583 39.1675 13.2599 38.6213 13.7989C38.0698 14.3431 37.4859 15.3186 37.6006 15.5042C37.637 15.5631 39.4451 15.6096 41.8592 15.6139L46.0547 15.6215L45.9873 15.2067C45.8263 14.2144 44.6125 13.0462 43.3546 12.6726C42.7259 12.486 41.3417 12.4485 40.7007 12.6009ZM18.1582 19.3263L18.188 22.255H21.3119C24.2472 22.255 24.4663 22.241 24.938 22.0216C26.0588 21.5006 26.6299 20.6547 26.701 19.41C26.7737 18.1353 26.1004 17.0444 24.9828 16.6262C24.4203 16.4158 24.1236 16.3976 21.2501 16.3976H18.1285L18.1582 19.3263Z" fill="white"/>
<path fill-rule="evenodd" clip-rule="evenodd" d="M72.1005 5.72643L72.1297 10.3929L72.6584 9.92648C73.6427 9.05824 75.2371 8.43099 76.9093 8.25438C80.9258 7.83019 84.8439 10.3199 86.1644 14.1353C86.6625 15.5749 86.7702 16.3325 86.714 18.0045C86.6535 19.8049 86.4238 20.8199 85.7767 22.1464C84.9419 23.8573 83.6176 25.1892 81.8912 26.054C80.4944 26.7538 79.4339 27 77.8173 27C75.7454 27 74.0894 26.4758 72.7724 25.4031L72.1361 24.8849L72.1038 25.803L72.0714 26.7211L69.6248 26.7512C67.7485 26.7743 67.158 26.7485 67.0912 26.6404C66.9861 26.4704 66.9602 2.28919 67.0643 1.53208L67.1375 1L69.6044 1.03001L72.0714 1.06002L72.1005 5.72643ZM136.339 8.56309C136.442 8.85451 136.621 9.34408 136.736 9.6509C136.851 9.95771 137.19 10.9116 137.491 11.7707C137.792 12.6298 138.345 14.1947 138.721 15.2481C139.096 16.3017 139.404 17.2179 139.404 17.2843C139.404 17.3507 139.45 17.405 139.507 17.405C139.643 17.405 139.799 16.9713 141.356 12.2728C142.077 10.0944 142.692 8.24936 142.721 8.1726C142.762 8.0675 143.321 8.03314 144.994 8.03314C146.865 8.03314 147.214 8.05869 147.214 8.19592C147.214 8.2854 146.859 9.25192 146.426 10.3436C144.96 14.0341 144.527 15.117 144.427 15.341C144.372 15.4637 143.542 17.5472 142.582 19.9711C141.622 22.395 140.623 24.9053 140.362 25.5496L139.886 26.7211L137.637 26.7513C136.4 26.7679 135.387 26.7389 135.387 26.6868C135.387 26.5952 135.905 25.2754 136.457 23.9597C136.605 23.6069 136.843 23.0281 136.987 22.6735L137.248 22.0289L136.713 20.6932C136.297 19.6538 131.985 8.80442 131.736 8.1726C131.694 8.06382 132.174 8.03314 133.916 8.03314H136.15L136.339 8.56309ZM99.2237 8.49626C102.108 9.19826 104.249 11.0484 105.373 13.8118C105.879 15.0552 106.062 16.1038 106.082 17.8733L106.1 19.469L99.2108 19.4978C94.5961 19.517 92.3213 19.5643 92.3213 19.641C92.3213 19.8835 92.8791 20.8268 93.256 21.2216C93.8597 21.854 94.4633 22.2045 95.3489 22.437C96.7301 22.7996 98.1936 22.6567 99.5194 22.0295C100.18 21.7169 101.111 20.9348 101.347 20.4948C101.509 20.1926 101.642 20.1993 102.139 20.5343C102.293 20.6376 103.039 21.091 103.798 21.542C104.557 21.993 105.203 22.4276 105.233 22.5081C105.359 22.8358 104.095 24.3552 103.056 25.1256C101.918 25.9691 100.646 26.509 99.0227 26.8379C97.7366 27.0985 95.081 27.0171 93.8275 26.6786C90.0839 25.6679 87.6236 22.7468 87.1823 18.789C86.89 16.1674 87.6549 13.5099 89.2633 11.56C91.524 8.81937 95.5113 7.59288 99.2237 8.49626ZM118.651 10.7945C118.65 13.43 118.649 13.4449 118.4 13.5616C117.957 13.7693 112.801 16.4313 112.599 16.5566C112.418 16.6691 112.404 17.0386 112.404 21.7273V26.7769H109.894H107.383V17.6281V8.47941H109.894H112.404V9.92324C112.404 10.7174 112.442 11.3904 112.488 11.4188C112.534 11.4474 112.898 11.2832 113.297 11.0539C113.695 10.8247 114.699 10.2659 115.528 9.81201C116.356 9.35825 117.36 8.7975 117.757 8.56588C118.155 8.33426 118.519 8.14471 118.566 8.14471C118.613 8.14471 118.651 9.33716 118.651 10.7945ZM130.809 10.7619L130.799 13.379L130.443 13.5915C130.119 13.7851 128.28 14.7438 125.597 16.118L124.565 16.6465V21.7117V26.7769H122.055H119.544V17.6281V8.47941H122.055H124.565V9.92324C124.565 10.7174 124.603 11.3886 124.649 11.4149C124.695 11.4413 125.36 11.1129 126.127 10.6854C126.894 10.2577 127.83 9.73725 128.207 9.52873C128.584 9.32009 129.287 8.92491 129.769 8.65056C130.251 8.3761 130.685 8.15006 130.732 8.14817C130.78 8.14627 130.814 9.32244 130.809 10.7619ZM77.7297 11.5205C76.964 11.7658 75.9206 12.9693 75.9206 13.6072C75.9206 13.8629 75.838 13.8826 75.4258 13.726C75.0147 13.5697 75.0667 13.7676 75.5337 14.1368C76.1483 14.6228 76.3916 15.12 76.4518 16.0134C76.4808 16.4446 76.4446 17.0862 76.3713 17.4394C76.2456 18.0449 76.21 18.0946 75.7439 18.3136C74.9563 18.6839 74.3586 19.5582 74.3586 20.34C74.3586 20.8294 74.7608 21.592 75.2172 21.9683C76.2362 22.8082 77.9124 22.6501 78.7551 21.6345C79.0501 21.279 79.2873 20.4297 79.2039 20.0274C79.0052 19.0704 78.1684 18.2804 77.1871 18.1235C76.7294 18.0503 76.7254 18.0456 76.8262 17.6993C76.9669 17.2159 76.965 15.5172 76.8234 15.1449C76.4817 14.246 78.0256 15.6347 78.5298 16.6798C78.9756 17.6037 78.9942 17.7483 78.6963 17.973L78.4335 18.1713L78.7112 18.2783C78.8638 18.3372 79.1069 18.5226 79.2514 18.6904C79.8432 19.3776 79.9847 20.2812 79.6144 21.0075C79.4239 21.3812 79.4211 21.4227 79.5865 21.4339C81.0758 21.5342 82.1365 20.1453 81.5552 18.8561C81.3024 18.2954 80.6481 17.8411 79.986 17.7665C79.6491 17.7286 79.4514 17.6465 79.4126 17.5288C79.2408 17.0073 78.6833 15.9047 78.4091 15.5446C78.237 15.3183 77.806 14.9193 77.4514 14.658L76.8067 14.1828L77.3399 13.9472C78.2779 13.5329 78.8046 12.8804 79.0288 11.8544L79.1323 11.3802L78.6143 11.3916C78.3294 11.3979 77.9313 11.4559 77.7297 11.5205ZM95.7138 12.6038C94.543 12.8541 93.4927 13.5684 92.8629 14.543C92.6264 14.9088 92.4329 15.2757 92.4329 15.3583C92.4329 15.4813 93.1888 15.5083 96.6307 15.5083H100.829L100.758 15.1536C100.571 14.2195 99.357 13.0404 98.2464 12.714C97.6847 12.549 96.2602 12.487 95.7138 12.6038ZM77.7593 18.7759C78.2278 19.0413 78.7049 19.7404 78.708 20.1664C78.7109 20.5657 78.5061 20.4574 78.3811 19.9936C78.2401 19.4697 77.76 18.9948 77.221 18.846C76.9967 18.784 76.8131 18.6855 76.8131 18.627C76.8131 18.4398 77.3015 18.5166 77.7593 18.7759Z" fill="#EF096C"/>
</svg>
