<svg width="21" height="21" fill="none" xmlns="http://www.w3.org/2000/svg"><g clip-path="url(#clip0)" fill="#000"><path d="M20.85 10.004c-.178-.245-4.435-5.985-9.872-5.985s-9.695 5.74-9.873 5.984a.66.66 0 000 .779c.178.244 4.436 5.984 9.873 5.984 5.437 0 9.694-5.74 9.873-5.984a.66.66 0 000-.778zm-9.872 5.444c-4.005 0-7.474-3.81-8.5-5.056 1.025-1.246 4.486-5.054 8.5-5.054 4.005 0 7.473 3.809 8.5 5.055-1.025 1.247-4.487 5.054-8.5 5.054z"/><path d="M10.978 6.436a3.96 3.96 0 00-3.956 3.957 3.96 3.96 0 003.956 3.956 3.96 3.96 0 003.956-3.957 3.96 3.96 0 00-3.956-3.956zm0 6.594a2.64 2.64 0 01-2.637-2.637 2.64 2.64 0 012.637-2.638 2.64 2.64 0 012.637 2.638 2.64 2.64 0 01-2.637 2.637z"/></g><defs><clipPath id="clip0"><path d="M.978.393h20v20h-20z"/></clipPath></defs></svg>