<svg width="19" height="16" fill="none" xmlns="http://www.w3.org/2000/svg"><path d="M18.87 7.608a17.878 17.878 0 00-4.104-3.835l2.678-2.628a.657.657 0 00.017-.942.688.688 0 00-.976 0l-2.926 2.869A8.904 8.904 0 009.5 2.006C4.343 2.006.3 7.38.13 7.608a.656.656 0 000 .784 17.877 17.877 0 004.104 3.835l-2.678 2.628a.657.657 0 00-.017.942.688.688 0 00.976 0l2.926-2.869A8.905 8.905 0 009.5 13.994c5.157 0 9.2-5.373 9.37-5.602a.656.656 0 000-.784zM5.22 11.261A16.79 16.79 0 011.543 8C2.542 6.813 5.781 3.338 9.5 3.338a7.293 7.293 0 013.046.733l-1.178 1.156c-1.559-1.016-3.66-.599-4.696.93a3.273 3.273 0 000 3.678L5.22 11.261zm6.112-4.117c.133.267.202.56.204.856 0 1.103-.912 1.998-2.036 1.998a2.04 2.04 0 01-.872-.2l2.704-2.654zM7.668 8.856A1.935 1.935 0 017.464 8c0-1.103.912-1.998 2.036-1.998.302.001.6.07.872.2L7.668 8.856zM9.5 12.662a7.293 7.293 0 01-3.046-.733l1.178-1.156c1.559 1.016 3.66.599 4.696-.93a3.273 3.273 0 000-3.678l1.452-1.426A16.79 16.79 0 0117.457 8c-.999 1.187-4.239 4.662-7.957 4.662z" fill="#000"/></svg>